<?xml version="1.0" standalone="no"?><!DOCTYPE svg PUBLIC "-//W3C//DTD SVG 1.1//EN" "http://www.w3.org/Graphics/SVG/1.1/DTD/svg11.dtd"><svg t="1555507827050" class="icon" style="" viewBox="0 0 1024 1024" version="1.1" xmlns="http://www.w3.org/2000/svg" p-id="3582" xmlns:xlink="http://www.w3.org/1999/xlink" width="200" height="200"><defs><style type="text/css"></style></defs><path d="M128.235616 148.70174c0-11.30344 9.162684-20.466124 20.466124-20.466124l235.376799 0L384.078539 64.275909l-256.358669 0c-35.040051 0-63.444984 28.404933-63.444984 63.444984l0 256.357646 63.960731 0L128.235616 148.70174z" p-id="3583" fill="#1890ff"></path><path d="M896.279107 64.275909l-256.358669 0 0 63.960731 235.376799 0c11.30344 0 20.466124 9.162684 20.466124 20.466124l0 235.376799 63.960731 0L959.724091 127.720893C959.724091 92.680842 931.319158 64.275909 896.279107 64.275909z" p-id="3584" fill="#1890ff"></path><path d="M128.235616 875.297236 128.235616 639.921461 64.275909 639.921461l0 256.357646c0 35.040051 28.404933 63.444984 63.444984 63.444984l256.358669 0 0-63.960731L148.70174 895.76336C137.399323 895.76336 128.235616 886.600677 128.235616 875.297236z" p-id="3585" fill="#1890ff"></path><path d="M895.76336 875.297236c0 11.30344-9.162684 20.466124-20.466124 20.466124L639.921461 895.76336l0 63.960731 256.358669 0c35.040051 0 63.444984-28.404933 63.444984-63.444984L959.725114 639.921461l-63.960731 0L895.764384 875.297236z" p-id="3586" fill="#1890ff"></path><path d="M192.196347 500.485759l0 23.028483c0 11.30344 9.162684 20.466124 20.466124 20.466124l598.674035 0c11.30344 0 20.466124-9.162684 20.466124-20.466124l0-23.028483c0-11.30344-9.162684-20.466124-20.466124-20.466124L212.662471 480.019635C201.360054 480.019635 192.196347 489.182318 192.196347 500.485759z" p-id="3587" fill="#1890ff"></path></svg>